<svg xmlns="http://www.w3.org/2000/svg" xmlns:svg="http://www.w3.org/2000/svg" xmlns:xlink="http://www.w3.org/1999/xlink" id="svg2" width="6" height="6" version="1.1"><defs id="defs4"><linearGradient id="linearGradient4929-3-4"><stop style="stop-color:#fff;stop-opacity:1" id="stop4931-8-9" offset="0"/><stop style="stop-color:#fff;stop-opacity:0" id="stop4933-2-0" offset="1"/></linearGradient><linearGradient id="linearGradient5239-4"><stop style="stop-color:#000;stop-opacity:1" id="stop5241-4" offset="0"/><stop style="stop-color:#000;stop-opacity:0" id="stop5243-3" offset="1"/></linearGradient><linearGradient id="linearGradient5951-9-5"><stop style="stop-color:#000;stop-opacity:1" id="stop5953-5-1" offset="0"/><stop style="stop-color:#000;stop-opacity:.3137255" id="stop5955-0-3" offset="1"/></linearGradient><linearGradient id="linearGradient3994" x1="429.793" x2="429.793" y1="308.313" y2="312.049" gradientUnits="userSpaceOnUse" xlink:href="#linearGradient5951-9-5"/><linearGradient id="linearGradient3996" x1="429.454" x2="429.454" y1="308.984" y2="311.448" gradientUnits="userSpaceOnUse" xlink:href="#linearGradient5239-4"/><linearGradient id="linearGradient3998" x1="429.454" x2="429.454" y1="307.592" y2="312.557" gradientUnits="userSpaceOnUse" xlink:href="#linearGradient4929-3-4"/></defs><metadata id="metadata7"/><g id="layer1" transform="translate(103.00001,-488.29947)"><path style="opacity:.3;color:#000;fill:url(#linearGradient3994);fill-opacity:1;fill-rule:evenodd;stroke:none;stroke-width:.99999994px;marker:none;visibility:visible;display:inline;overflow:visible;enable-background:accumulate" id="path5949-5" d="m 431.86107,310.181 c 0,1.03187 -0.92613,1.86837 -2.06856,1.86837 -1.14243,0 -2.06855,-0.8365 -2.06855,-1.86837 0,-1.03187 0.92612,-1.86837 2.06855,-1.86837 1.14243,0 2.06856,0.8365 2.06856,1.86837 z" transform="matrix(0.96685812,0,0,1.0704501,-515.54838,159.26623)"/><path style="opacity:.10000000000000001;color:#000;fill:none;stroke:url(#linearGradient3996);stroke-width:1.3410831700000001px;stroke-opacity:1;marker:none;visibility:visible;display:inline;overflow:visible;enable-background:accumulate" id="path5949-7-1" d="m 431.86107,310.181 c 0,1.03187 -0.92613,1.86837 -2.06856,1.86837 -1.14243,0 -2.06855,-0.8365 -2.06855,-1.86837 0,-1.03187 0.92612,-1.86837 2.06855,-1.86837 1.14243,0 2.06856,0.8365 2.06856,1.86837 z" transform="matrix(0.72095313,0,0,0.79819815,-409.86025,243.71361)"/><path style="opacity:.5;color:#000;fill:none;stroke:url(#linearGradient3998);stroke-width:.80278349px;stroke-opacity:1;marker:none;visibility:visible;display:inline;overflow:visible;enable-background:accumulate" id="path5949-7-4-0" d="m 431.86107,310.181 c 0,1.03187 -0.92613,1.86837 -2.06856,1.86837 -1.14243,0 -2.06855,-0.8365 -2.06855,-1.86837 0,-1.03187 0.92612,-1.86837 2.06855,-1.86837 1.14243,0 2.06856,0.8365 2.06856,1.86837 z" transform="matrix(1.2043822,0,0,-1.3334232,-617.63446,904.90201)"/></g></svg>