<svg xmlns="http://www.w3.org/2000/svg" xmlns:svg="http://www.w3.org/2000/svg" xmlns:xlink="http://www.w3.org/1999/xlink" id="svg7539" width="16" height="16" version="1.1"><defs id="defs7541"><linearGradient id="linearGradient4929-9-0-03-2-2-2-3-9-7-3-7-7-2-6-3-4-7-3-2-9"><stop id="stop4931-7-3-3-9-6-4-6-1-9-5-2-4-0-3-4-8-9-6-1-9" offset="0" style="stop-color:#fff;stop-opacity:1"/><stop id="stop4933-0-1-2-7-9-6-0-7-8-0-4-1-4-6-6-1-0-2-6-2" offset="1" style="stop-color:#fff;stop-opacity:0"/></linearGradient><linearGradient id="linearGradient3060" x1="670.251" x2="670.251" y1="490.547" y2="481.067" gradientTransform="matrix(0.1948052,0,0,0.7142857,-120.79219,-334.99213)" gradientUnits="userSpaceOnUse" xlink:href="#linearGradient4929-9-0-03-2-2-2-3-9-7-3-7-7-2-6-3-4-7-3-2-9"/><linearGradient id="linearGradient3009-7-5" x1="292.857" x2="292.857" y1="211.076" y2="233.827" gradientTransform="matrix(0.04100307,0,0,0.44322346,-20.929242,-88.508712)" gradientUnits="userSpaceOnUse" xlink:href="#linearGradient4695-1-4-3-5-0-3-4"/><linearGradient id="linearGradient4695-1-4-3-5-0-3-4"><stop id="stop4697-9-9-7-0-1-3-6" offset="0" style="stop-color:#000;stop-opacity:1"/><stop id="stop4699-5-8-9-0-4-9-8" offset="1" style="stop-color:#000;stop-opacity:0"/></linearGradient><linearGradient id="linearGradient8022-0" x1="731.057" x2="731.057" y1="654.815" y2="619.307" gradientTransform="matrix(0.8047894,0,0,0.60165743,-516.81832,-396.08035)" gradientUnits="userSpaceOnUse" xlink:href="#linearGradient27416-1-34"/><linearGradient id="linearGradient27416-1-34"><stop style="stop-color:#55c1ec;stop-opacity:1" id="stop27420-2-24" offset="0"/><stop style="stop-color:#3689e6;stop-opacity:1" id="stop27422-3-0" offset="1"/></linearGradient></defs><metadata id="metadata7544"/><path style="opacity:.98999999000000005;color:#000;fill:url(#linearGradient8022-0);stroke:none;stroke-width:.88161466;stroke-linecap:round;stroke-linejoin:round;stroke-miterlimit:4;stroke-opacity:1;stroke-dasharray:none;stroke-dashoffset:0;marker:none;visibility:visible;display:inline;overflow:visible;enable-background:accumulate;fill-opacity:1;fill-rule:nonzero" id="path3010-2" d="m 13.531915,9.2765961 a 5.7304964,5.7304964 0 1 1 -11.4609931,0 5.7304964,5.7304964 0 1 1 11.4609931,0 z" transform="matrix(1.1342822,0,0,1.1342822,-0.84900982,-2.5222777)"/><path style="opacity:.2;color:#000;fill:none;stroke:url(#linearGradient3060);stroke-width:.76406598;stroke-linecap:round;stroke-linejoin:round;stroke-miterlimit:4;stroke-opacity:1;stroke-dasharray:none;stroke-dashoffset:0;marker:none;visibility:visible;display:inline;overflow:visible;enable-background:accumulate" id="path3010-3" d="m 13.531915,9.2765961 a 5.7304964,5.7304964 0 1 1 -11.4609931,0 5.7304964,5.7304964 0 1 1 11.4609931,0 z" transform="matrix(1.3087872,0,0,1.3087872,-2.210396,-4.1410896)"/><path id="path2922-6-6-0-9-4" d="m 11.986748,3.6245337 2.01342,1.81209 -6.7651102,8.9395903 -5.23489,-4.5100603 1.73154,-2.29531 3.0604,2.6577203 5.1946402,-6.6040303 z" style="color:#000;fill:#2f78c7;fill-opacity:.99215686;fill-rule:nonzero;stroke:none;stroke-width:.84323651;marker:none;visibility:visible;display:inline;overflow:visible;enable-background:accumulate"/><path id="path2922-6-6-0-9" d="m 11.986748,2.6241737 2.01342,1.81209 -6.7651102,8.9395903 -5.23489,-4.5100603 1.73154,-2.29531 3.0604,2.65772 5.1946402,-6.60403 z" style="color:#000;fill:#fff;fill-opacity:1;fill-rule:nonzero;stroke:none;stroke-width:.84323651;marker:none;visibility:visible;display:inline;overflow:visible;enable-background:accumulate"/><path style="opacity:.5;color:#000;fill:none;stroke:#005485;stroke-width:.88161472;stroke-linecap:round;stroke-linejoin:round;stroke-miterlimit:4;stroke-opacity:1;stroke-dasharray:none;stroke-dashoffset:0;marker:none;visibility:visible;display:inline;overflow:visible;enable-background:accumulate" id="path3010" d="m 13.531915,9.2765961 a 5.7304964,5.7304964 0 1 1 -11.4609931,0 5.7304964,5.7304964 0 1 1 11.4609931,0 z" transform="matrix(1.1342822,0,0,1.1342822,-0.84900982,-2.5222779)"/><path style="opacity:.05;color:#000;fill:none;stroke:url(#linearGradient3009-7-5);stroke-width:1.04190838;stroke-linecap:round;stroke-linejoin:round;stroke-miterlimit:4;stroke-opacity:1;stroke-dasharray:none;stroke-dashoffset:0;marker:none;visibility:visible;display:inline;overflow:visible;enable-background:accumulate" id="path3010-28" d="m 13.531915,9.2765961 a 5.7304964,5.7304964 0 1 1 -11.4609931,0 5.7304964,5.7304964 0 1 1 11.4609931,0 z" transform="matrix(0.95977724,0,0,0.95977724,0.51237627,-0.90346577)"/></svg>